G04 #@! TF.GenerationSoftware,KiCad,Pcbnew,10.0.1*
G04 #@! TF.CreationDate,2026-09-13T00:40:56+08:00*
G04 #@! TF.ProjectId,0.8_0.5_fpc_45degree,302e385f-302e-4355-9f66-70635f343564,rev?*
G04 #@! TF.SameCoordinates,Original*
G04 #@! TF.FileFunction,Legend,Top*
G04 #@! TF.FilePolarity,Positive*
%FSLAX46Y46*%
G04 Gerber Fmt 4.6, Leading zero omitted, Abs format (unit mm)*
G04 Created by KiCad (PCBNEW 10.0.1) date 2026-09-13 00:40:56*
%MOMM*%
%LPD*%
G01*
G04 APERTURE LIST*
%ADD10C,0.140000*%
%ADD11C,0.090000*%
%ADD12C,0.080000*%
G04 APERTURE END LIST*
D10*
X97369047Y-94535947D02*
X97935714Y-94535947D01*
X97935714Y-94535947D02*
X97369047Y-95385947D01*
X97369047Y-95385947D02*
X97935714Y-95385947D01*
X98704762Y-94576423D02*
X98623809Y-94535947D01*
X98623809Y-94535947D02*
X98502381Y-94535947D01*
X98502381Y-94535947D02*
X98380952Y-94576423D01*
X98380952Y-94576423D02*
X98300000Y-94657375D01*
X98300000Y-94657375D02*
X98259523Y-94738328D01*
X98259523Y-94738328D02*
X98219047Y-94900232D01*
X98219047Y-94900232D02*
X98219047Y-95021661D01*
X98219047Y-95021661D02*
X98259523Y-95183566D01*
X98259523Y-95183566D02*
X98300000Y-95264518D01*
X98300000Y-95264518D02*
X98380952Y-95345471D01*
X98380952Y-95345471D02*
X98502381Y-95385947D01*
X98502381Y-95385947D02*
X98583333Y-95385947D01*
X98583333Y-95385947D02*
X98704762Y-95345471D01*
X98704762Y-95345471D02*
X98745238Y-95304994D01*
X98745238Y-95304994D02*
X98745238Y-95021661D01*
X98745238Y-95021661D02*
X98583333Y-95021661D01*
X99676190Y-95466899D02*
X99595238Y-95426423D01*
X99595238Y-95426423D02*
X99514285Y-95345471D01*
X99514285Y-95345471D02*
X99392857Y-95224042D01*
X99392857Y-95224042D02*
X99311904Y-95183566D01*
X99311904Y-95183566D02*
X99230952Y-95183566D01*
X99271428Y-95385947D02*
X99190476Y-95345471D01*
X99190476Y-95345471D02*
X99109523Y-95264518D01*
X99109523Y-95264518D02*
X99069047Y-95102613D01*
X99069047Y-95102613D02*
X99069047Y-94819280D01*
X99069047Y-94819280D02*
X99109523Y-94657375D01*
X99109523Y-94657375D02*
X99190476Y-94576423D01*
X99190476Y-94576423D02*
X99271428Y-94535947D01*
X99271428Y-94535947D02*
X99433333Y-94535947D01*
X99433333Y-94535947D02*
X99514285Y-94576423D01*
X99514285Y-94576423D02*
X99595238Y-94657375D01*
X99595238Y-94657375D02*
X99635714Y-94819280D01*
X99635714Y-94819280D02*
X99635714Y-95102613D01*
X99635714Y-95102613D02*
X99595238Y-95264518D01*
X99595238Y-95264518D02*
X99514285Y-95345471D01*
X99514285Y-95345471D02*
X99433333Y-95385947D01*
X99433333Y-95385947D02*
X99271428Y-95385947D01*
X100647618Y-95385947D02*
X100647618Y-94535947D01*
X101052380Y-94819280D02*
X101052380Y-95385947D01*
X101052380Y-94900232D02*
X101092857Y-94859756D01*
X101092857Y-94859756D02*
X101173809Y-94819280D01*
X101173809Y-94819280D02*
X101295238Y-94819280D01*
X101295238Y-94819280D02*
X101376190Y-94859756D01*
X101376190Y-94859756D02*
X101416666Y-94940709D01*
X101416666Y-94940709D02*
X101416666Y-95385947D01*
X102185714Y-95345471D02*
X102104762Y-95385947D01*
X102104762Y-95385947D02*
X101942857Y-95385947D01*
X101942857Y-95385947D02*
X101861905Y-95345471D01*
X101861905Y-95345471D02*
X101821428Y-95304994D01*
X101821428Y-95304994D02*
X101780952Y-95224042D01*
X101780952Y-95224042D02*
X101780952Y-94981185D01*
X101780952Y-94981185D02*
X101821428Y-94900232D01*
X101821428Y-94900232D02*
X101861905Y-94859756D01*
X101861905Y-94859756D02*
X101942857Y-94819280D01*
X101942857Y-94819280D02*
X102104762Y-94819280D01*
X102104762Y-94819280D02*
X102185714Y-94859756D01*
X102549999Y-95304994D02*
X102590476Y-95345471D01*
X102590476Y-95345471D02*
X102549999Y-95385947D01*
X102549999Y-95385947D02*
X102509523Y-95345471D01*
X102509523Y-95345471D02*
X102549999Y-95304994D01*
X102549999Y-95304994D02*
X102549999Y-95385947D01*
D11*
X94724761Y-96459829D02*
X94918094Y-96459829D01*
X95000951Y-96763639D02*
X94724761Y-96763639D01*
X94724761Y-96763639D02*
X94724761Y-96183639D01*
X94724761Y-96183639D02*
X95000951Y-96183639D01*
X95249523Y-96763639D02*
X95249523Y-96183639D01*
X95249523Y-96183639D02*
X95470475Y-96183639D01*
X95470475Y-96183639D02*
X95525713Y-96211258D01*
X95525713Y-96211258D02*
X95553332Y-96238877D01*
X95553332Y-96238877D02*
X95580951Y-96294115D01*
X95580951Y-96294115D02*
X95580951Y-96376972D01*
X95580951Y-96376972D02*
X95553332Y-96432210D01*
X95553332Y-96432210D02*
X95525713Y-96459829D01*
X95525713Y-96459829D02*
X95470475Y-96487448D01*
X95470475Y-96487448D02*
X95249523Y-96487448D01*
X95829523Y-96763639D02*
X95829523Y-96183639D01*
X95829523Y-96183639D02*
X95967618Y-96183639D01*
X95967618Y-96183639D02*
X96050475Y-96211258D01*
X96050475Y-96211258D02*
X96105713Y-96266496D01*
X96105713Y-96266496D02*
X96133332Y-96321734D01*
X96133332Y-96321734D02*
X96160951Y-96432210D01*
X96160951Y-96432210D02*
X96160951Y-96515067D01*
X96160951Y-96515067D02*
X96133332Y-96625543D01*
X96133332Y-96625543D02*
X96105713Y-96680781D01*
X96105713Y-96680781D02*
X96050475Y-96736020D01*
X96050475Y-96736020D02*
X95967618Y-96763639D01*
X95967618Y-96763639D02*
X95829523Y-96763639D01*
X96823809Y-96238877D02*
X96851428Y-96211258D01*
X96851428Y-96211258D02*
X96906666Y-96183639D01*
X96906666Y-96183639D02*
X97044761Y-96183639D01*
X97044761Y-96183639D02*
X97099999Y-96211258D01*
X97099999Y-96211258D02*
X97127618Y-96238877D01*
X97127618Y-96238877D02*
X97155237Y-96294115D01*
X97155237Y-96294115D02*
X97155237Y-96349353D01*
X97155237Y-96349353D02*
X97127618Y-96432210D01*
X97127618Y-96432210D02*
X96796190Y-96763639D01*
X96796190Y-96763639D02*
X97155237Y-96763639D01*
X97652380Y-96376972D02*
X97652380Y-96763639D01*
X97514285Y-96156020D02*
X97376190Y-96570305D01*
X97376190Y-96570305D02*
X97735237Y-96570305D01*
X97956190Y-96763639D02*
X97956190Y-96183639D01*
X97956190Y-96183639D02*
X98177142Y-96183639D01*
X98177142Y-96183639D02*
X98232380Y-96211258D01*
X98232380Y-96211258D02*
X98259999Y-96238877D01*
X98259999Y-96238877D02*
X98287618Y-96294115D01*
X98287618Y-96294115D02*
X98287618Y-96376972D01*
X98287618Y-96376972D02*
X98259999Y-96432210D01*
X98259999Y-96432210D02*
X98232380Y-96459829D01*
X98232380Y-96459829D02*
X98177142Y-96487448D01*
X98177142Y-96487448D02*
X97956190Y-96487448D01*
X98950476Y-96736020D02*
X99033333Y-96763639D01*
X99033333Y-96763639D02*
X99171428Y-96763639D01*
X99171428Y-96763639D02*
X99226666Y-96736020D01*
X99226666Y-96736020D02*
X99254285Y-96708400D01*
X99254285Y-96708400D02*
X99281904Y-96653162D01*
X99281904Y-96653162D02*
X99281904Y-96597924D01*
X99281904Y-96597924D02*
X99254285Y-96542686D01*
X99254285Y-96542686D02*
X99226666Y-96515067D01*
X99226666Y-96515067D02*
X99171428Y-96487448D01*
X99171428Y-96487448D02*
X99060952Y-96459829D01*
X99060952Y-96459829D02*
X99005714Y-96432210D01*
X99005714Y-96432210D02*
X98978095Y-96404591D01*
X98978095Y-96404591D02*
X98950476Y-96349353D01*
X98950476Y-96349353D02*
X98950476Y-96294115D01*
X98950476Y-96294115D02*
X98978095Y-96238877D01*
X98978095Y-96238877D02*
X99005714Y-96211258D01*
X99005714Y-96211258D02*
X99060952Y-96183639D01*
X99060952Y-96183639D02*
X99199047Y-96183639D01*
X99199047Y-96183639D02*
X99281904Y-96211258D01*
X99640952Y-96183639D02*
X99751428Y-96183639D01*
X99751428Y-96183639D02*
X99806666Y-96211258D01*
X99806666Y-96211258D02*
X99861904Y-96266496D01*
X99861904Y-96266496D02*
X99889523Y-96376972D01*
X99889523Y-96376972D02*
X99889523Y-96570305D01*
X99889523Y-96570305D02*
X99861904Y-96680781D01*
X99861904Y-96680781D02*
X99806666Y-96736020D01*
X99806666Y-96736020D02*
X99751428Y-96763639D01*
X99751428Y-96763639D02*
X99640952Y-96763639D01*
X99640952Y-96763639D02*
X99585714Y-96736020D01*
X99585714Y-96736020D02*
X99530476Y-96680781D01*
X99530476Y-96680781D02*
X99502857Y-96570305D01*
X99502857Y-96570305D02*
X99502857Y-96376972D01*
X99502857Y-96376972D02*
X99530476Y-96266496D01*
X99530476Y-96266496D02*
X99585714Y-96211258D01*
X99585714Y-96211258D02*
X99640952Y-96183639D01*
X100414285Y-96763639D02*
X100138095Y-96763639D01*
X100138095Y-96763639D02*
X100138095Y-96183639D01*
X100607619Y-96763639D02*
X100607619Y-96183639D01*
X100607619Y-96183639D02*
X100745714Y-96183639D01*
X100745714Y-96183639D02*
X100828571Y-96211258D01*
X100828571Y-96211258D02*
X100883809Y-96266496D01*
X100883809Y-96266496D02*
X100911428Y-96321734D01*
X100911428Y-96321734D02*
X100939047Y-96432210D01*
X100939047Y-96432210D02*
X100939047Y-96515067D01*
X100939047Y-96515067D02*
X100911428Y-96625543D01*
X100911428Y-96625543D02*
X100883809Y-96680781D01*
X100883809Y-96680781D02*
X100828571Y-96736020D01*
X100828571Y-96736020D02*
X100745714Y-96763639D01*
X100745714Y-96763639D02*
X100607619Y-96763639D01*
X101187619Y-96459829D02*
X101380952Y-96459829D01*
X101463809Y-96763639D02*
X101187619Y-96763639D01*
X101187619Y-96763639D02*
X101187619Y-96183639D01*
X101187619Y-96183639D02*
X101463809Y-96183639D01*
X102043809Y-96763639D02*
X101850476Y-96487448D01*
X101712381Y-96763639D02*
X101712381Y-96183639D01*
X101712381Y-96183639D02*
X101933333Y-96183639D01*
X101933333Y-96183639D02*
X101988571Y-96211258D01*
X101988571Y-96211258D02*
X102016190Y-96238877D01*
X102016190Y-96238877D02*
X102043809Y-96294115D01*
X102043809Y-96294115D02*
X102043809Y-96376972D01*
X102043809Y-96376972D02*
X102016190Y-96432210D01*
X102016190Y-96432210D02*
X101988571Y-96459829D01*
X101988571Y-96459829D02*
X101933333Y-96487448D01*
X101933333Y-96487448D02*
X101712381Y-96487448D01*
X102651429Y-96183639D02*
X102982857Y-96183639D01*
X102817143Y-96763639D02*
X102817143Y-96183639D01*
X103286667Y-96183639D02*
X103397143Y-96183639D01*
X103397143Y-96183639D02*
X103452381Y-96211258D01*
X103452381Y-96211258D02*
X103507619Y-96266496D01*
X103507619Y-96266496D02*
X103535238Y-96376972D01*
X103535238Y-96376972D02*
X103535238Y-96570305D01*
X103535238Y-96570305D02*
X103507619Y-96680781D01*
X103507619Y-96680781D02*
X103452381Y-96736020D01*
X103452381Y-96736020D02*
X103397143Y-96763639D01*
X103397143Y-96763639D02*
X103286667Y-96763639D01*
X103286667Y-96763639D02*
X103231429Y-96736020D01*
X103231429Y-96736020D02*
X103176191Y-96680781D01*
X103176191Y-96680781D02*
X103148572Y-96570305D01*
X103148572Y-96570305D02*
X103148572Y-96376972D01*
X103148572Y-96376972D02*
X103176191Y-96266496D01*
X103176191Y-96266496D02*
X103231429Y-96211258D01*
X103231429Y-96211258D02*
X103286667Y-96183639D01*
X104170477Y-96183639D02*
X104557143Y-96183639D01*
X104557143Y-96183639D02*
X104170477Y-96763639D01*
X104170477Y-96763639D02*
X104557143Y-96763639D01*
X104778096Y-96763639D02*
X104778096Y-96183639D01*
X105247619Y-96459829D02*
X105054286Y-96459829D01*
X105054286Y-96763639D02*
X105054286Y-96183639D01*
X105054286Y-96183639D02*
X105330476Y-96183639D01*
D12*
X95381905Y-98136401D02*
X95381905Y-97616401D01*
X95381905Y-97864020D02*
X95679048Y-97864020D01*
X95679048Y-98136401D02*
X95679048Y-97616401D01*
X95877143Y-97616401D02*
X96000953Y-98136401D01*
X96000953Y-98136401D02*
X96100000Y-97764973D01*
X96100000Y-97764973D02*
X96199048Y-98136401D01*
X96199048Y-98136401D02*
X96322858Y-97616401D01*
X96867619Y-97616401D02*
X97189524Y-97616401D01*
X97189524Y-97616401D02*
X97016191Y-97814497D01*
X97016191Y-97814497D02*
X97090476Y-97814497D01*
X97090476Y-97814497D02*
X97140000Y-97839259D01*
X97140000Y-97839259D02*
X97164762Y-97864020D01*
X97164762Y-97864020D02*
X97189524Y-97913544D01*
X97189524Y-97913544D02*
X97189524Y-98037354D01*
X97189524Y-98037354D02*
X97164762Y-98086878D01*
X97164762Y-98086878D02*
X97140000Y-98111640D01*
X97140000Y-98111640D02*
X97090476Y-98136401D01*
X97090476Y-98136401D02*
X96941905Y-98136401D01*
X96941905Y-98136401D02*
X96892381Y-98111640D01*
X96892381Y-98111640D02*
X96867619Y-98086878D01*
X97412381Y-98086878D02*
X97437143Y-98111640D01*
X97437143Y-98111640D02*
X97412381Y-98136401D01*
X97412381Y-98136401D02*
X97387619Y-98111640D01*
X97387619Y-98111640D02*
X97412381Y-98086878D01*
X97412381Y-98086878D02*
X97412381Y-98136401D01*
X97684762Y-98136401D02*
X97783810Y-98136401D01*
X97783810Y-98136401D02*
X97833333Y-98111640D01*
X97833333Y-98111640D02*
X97858095Y-98086878D01*
X97858095Y-98086878D02*
X97907619Y-98012592D01*
X97907619Y-98012592D02*
X97932381Y-97913544D01*
X97932381Y-97913544D02*
X97932381Y-97715449D01*
X97932381Y-97715449D02*
X97907619Y-97665925D01*
X97907619Y-97665925D02*
X97882857Y-97641163D01*
X97882857Y-97641163D02*
X97833333Y-97616401D01*
X97833333Y-97616401D02*
X97734286Y-97616401D01*
X97734286Y-97616401D02*
X97684762Y-97641163D01*
X97684762Y-97641163D02*
X97660000Y-97665925D01*
X97660000Y-97665925D02*
X97635238Y-97715449D01*
X97635238Y-97715449D02*
X97635238Y-97839259D01*
X97635238Y-97839259D02*
X97660000Y-97888782D01*
X97660000Y-97888782D02*
X97684762Y-97913544D01*
X97684762Y-97913544D02*
X97734286Y-97938306D01*
X97734286Y-97938306D02*
X97833333Y-97938306D01*
X97833333Y-97938306D02*
X97882857Y-97913544D01*
X97882857Y-97913544D02*
X97907619Y-97888782D01*
X97907619Y-97888782D02*
X97932381Y-97839259D01*
X98229524Y-97839259D02*
X98180000Y-97814497D01*
X98180000Y-97814497D02*
X98155238Y-97789735D01*
X98155238Y-97789735D02*
X98130476Y-97740211D01*
X98130476Y-97740211D02*
X98130476Y-97715449D01*
X98130476Y-97715449D02*
X98155238Y-97665925D01*
X98155238Y-97665925D02*
X98180000Y-97641163D01*
X98180000Y-97641163D02*
X98229524Y-97616401D01*
X98229524Y-97616401D02*
X98328571Y-97616401D01*
X98328571Y-97616401D02*
X98378095Y-97641163D01*
X98378095Y-97641163D02*
X98402857Y-97665925D01*
X98402857Y-97665925D02*
X98427619Y-97715449D01*
X98427619Y-97715449D02*
X98427619Y-97740211D01*
X98427619Y-97740211D02*
X98402857Y-97789735D01*
X98402857Y-97789735D02*
X98378095Y-97814497D01*
X98378095Y-97814497D02*
X98328571Y-97839259D01*
X98328571Y-97839259D02*
X98229524Y-97839259D01*
X98229524Y-97839259D02*
X98180000Y-97864020D01*
X98180000Y-97864020D02*
X98155238Y-97888782D01*
X98155238Y-97888782D02*
X98130476Y-97938306D01*
X98130476Y-97938306D02*
X98130476Y-98037354D01*
X98130476Y-98037354D02*
X98155238Y-98086878D01*
X98155238Y-98086878D02*
X98180000Y-98111640D01*
X98180000Y-98111640D02*
X98229524Y-98136401D01*
X98229524Y-98136401D02*
X98328571Y-98136401D01*
X98328571Y-98136401D02*
X98378095Y-98111640D01*
X98378095Y-98111640D02*
X98402857Y-98086878D01*
X98402857Y-98086878D02*
X98427619Y-98037354D01*
X98427619Y-98037354D02*
X98427619Y-97938306D01*
X98427619Y-97938306D02*
X98402857Y-97888782D01*
X98402857Y-97888782D02*
X98378095Y-97864020D01*
X98378095Y-97864020D02*
X98328571Y-97839259D01*
X98650476Y-97938306D02*
X99046667Y-97938306D01*
X99294286Y-98136401D02*
X99294286Y-97616401D01*
X99541905Y-98136401D02*
X99541905Y-97616401D01*
X99541905Y-97616401D02*
X99839048Y-98136401D01*
X99839048Y-98136401D02*
X99839048Y-97616401D01*
X100383810Y-98086878D02*
X100359048Y-98111640D01*
X100359048Y-98111640D02*
X100284762Y-98136401D01*
X100284762Y-98136401D02*
X100235238Y-98136401D01*
X100235238Y-98136401D02*
X100160953Y-98111640D01*
X100160953Y-98111640D02*
X100111429Y-98062116D01*
X100111429Y-98062116D02*
X100086667Y-98012592D01*
X100086667Y-98012592D02*
X100061905Y-97913544D01*
X100061905Y-97913544D02*
X100061905Y-97839259D01*
X100061905Y-97839259D02*
X100086667Y-97740211D01*
X100086667Y-97740211D02*
X100111429Y-97690687D01*
X100111429Y-97690687D02*
X100160953Y-97641163D01*
X100160953Y-97641163D02*
X100235238Y-97616401D01*
X100235238Y-97616401D02*
X100284762Y-97616401D01*
X100284762Y-97616401D02*
X100359048Y-97641163D01*
X100359048Y-97641163D02*
X100383810Y-97665925D01*
X100606667Y-98136401D02*
X100606667Y-97616401D01*
X100606667Y-97864020D02*
X100903810Y-97864020D01*
X100903810Y-98136401D02*
X100903810Y-97616401D01*
X101522857Y-97987830D02*
X101770476Y-97987830D01*
X101473333Y-98136401D02*
X101646667Y-97616401D01*
X101646667Y-97616401D02*
X101820000Y-98136401D01*
X101993333Y-98136401D02*
X101993333Y-97616401D01*
X101993333Y-97616401D02*
X102117143Y-97616401D01*
X102117143Y-97616401D02*
X102191428Y-97641163D01*
X102191428Y-97641163D02*
X102240952Y-97690687D01*
X102240952Y-97690687D02*
X102265714Y-97740211D01*
X102265714Y-97740211D02*
X102290476Y-97839259D01*
X102290476Y-97839259D02*
X102290476Y-97913544D01*
X102290476Y-97913544D02*
X102265714Y-98012592D01*
X102265714Y-98012592D02*
X102240952Y-98062116D01*
X102240952Y-98062116D02*
X102191428Y-98111640D01*
X102191428Y-98111640D02*
X102117143Y-98136401D01*
X102117143Y-98136401D02*
X101993333Y-98136401D01*
X102488571Y-97987830D02*
X102736190Y-97987830D01*
X102439047Y-98136401D02*
X102612381Y-97616401D01*
X102612381Y-97616401D02*
X102785714Y-98136401D01*
X102959047Y-98136401D02*
X102959047Y-97616401D01*
X102959047Y-97616401D02*
X103157142Y-97616401D01*
X103157142Y-97616401D02*
X103206666Y-97641163D01*
X103206666Y-97641163D02*
X103231428Y-97665925D01*
X103231428Y-97665925D02*
X103256190Y-97715449D01*
X103256190Y-97715449D02*
X103256190Y-97789735D01*
X103256190Y-97789735D02*
X103231428Y-97839259D01*
X103231428Y-97839259D02*
X103206666Y-97864020D01*
X103206666Y-97864020D02*
X103157142Y-97888782D01*
X103157142Y-97888782D02*
X102959047Y-97888782D01*
X103404761Y-97616401D02*
X103701904Y-97616401D01*
X103553333Y-98136401D02*
X103553333Y-97616401D01*
X103875237Y-97864020D02*
X104048570Y-97864020D01*
X104122856Y-98136401D02*
X103875237Y-98136401D01*
X103875237Y-98136401D02*
X103875237Y-97616401D01*
X103875237Y-97616401D02*
X104122856Y-97616401D01*
X104642856Y-98136401D02*
X104469523Y-97888782D01*
X104345713Y-98136401D02*
X104345713Y-97616401D01*
X104345713Y-97616401D02*
X104543808Y-97616401D01*
X104543808Y-97616401D02*
X104593332Y-97641163D01*
X104593332Y-97641163D02*
X104618094Y-97665925D01*
X104618094Y-97665925D02*
X104642856Y-97715449D01*
X104642856Y-97715449D02*
X104642856Y-97789735D01*
X104642856Y-97789735D02*
X104618094Y-97839259D01*
X104618094Y-97839259D02*
X104593332Y-97864020D01*
X104593332Y-97864020D02*
X104543808Y-97888782D01*
X104543808Y-97888782D02*
X104345713Y-97888782D01*
X96110715Y-99504018D02*
X95853572Y-99504018D01*
X95982143Y-99504018D02*
X95982143Y-99054018D01*
X95982143Y-99054018D02*
X95939286Y-99118304D01*
X95939286Y-99118304D02*
X95896429Y-99161161D01*
X95896429Y-99161161D02*
X95853572Y-99182590D01*
X96303571Y-99461161D02*
X96325000Y-99482590D01*
X96325000Y-99482590D02*
X96303571Y-99504018D01*
X96303571Y-99504018D02*
X96282143Y-99482590D01*
X96282143Y-99482590D02*
X96303571Y-99461161D01*
X96303571Y-99461161D02*
X96303571Y-99504018D01*
X96303571Y-99225447D02*
X96325000Y-99246875D01*
X96325000Y-99246875D02*
X96303571Y-99268304D01*
X96303571Y-99268304D02*
X96282143Y-99246875D01*
X96282143Y-99246875D02*
X96303571Y-99225447D01*
X96303571Y-99225447D02*
X96303571Y-99268304D01*
X96753572Y-99075447D02*
X96710715Y-99054018D01*
X96710715Y-99054018D02*
X96646429Y-99054018D01*
X96646429Y-99054018D02*
X96582143Y-99075447D01*
X96582143Y-99075447D02*
X96539286Y-99118304D01*
X96539286Y-99118304D02*
X96517857Y-99161161D01*
X96517857Y-99161161D02*
X96496429Y-99246875D01*
X96496429Y-99246875D02*
X96496429Y-99311161D01*
X96496429Y-99311161D02*
X96517857Y-99396875D01*
X96517857Y-99396875D02*
X96539286Y-99439732D01*
X96539286Y-99439732D02*
X96582143Y-99482590D01*
X96582143Y-99482590D02*
X96646429Y-99504018D01*
X96646429Y-99504018D02*
X96689286Y-99504018D01*
X96689286Y-99504018D02*
X96753572Y-99482590D01*
X96753572Y-99482590D02*
X96775000Y-99461161D01*
X96775000Y-99461161D02*
X96775000Y-99311161D01*
X96775000Y-99311161D02*
X96689286Y-99311161D01*
X96967857Y-99504018D02*
X96967857Y-99054018D01*
X96967857Y-99054018D02*
X97075000Y-99054018D01*
X97075000Y-99054018D02*
X97139286Y-99075447D01*
X97139286Y-99075447D02*
X97182143Y-99118304D01*
X97182143Y-99118304D02*
X97203572Y-99161161D01*
X97203572Y-99161161D02*
X97225000Y-99246875D01*
X97225000Y-99246875D02*
X97225000Y-99311161D01*
X97225000Y-99311161D02*
X97203572Y-99396875D01*
X97203572Y-99396875D02*
X97182143Y-99439732D01*
X97182143Y-99439732D02*
X97139286Y-99482590D01*
X97139286Y-99482590D02*
X97075000Y-99504018D01*
X97075000Y-99504018D02*
X96967857Y-99504018D01*
X97675000Y-99504018D02*
X97525000Y-99289732D01*
X97417857Y-99504018D02*
X97417857Y-99054018D01*
X97417857Y-99054018D02*
X97589286Y-99054018D01*
X97589286Y-99054018D02*
X97632143Y-99075447D01*
X97632143Y-99075447D02*
X97653572Y-99096875D01*
X97653572Y-99096875D02*
X97675000Y-99139732D01*
X97675000Y-99139732D02*
X97675000Y-99204018D01*
X97675000Y-99204018D02*
X97653572Y-99246875D01*
X97653572Y-99246875D02*
X97632143Y-99268304D01*
X97632143Y-99268304D02*
X97589286Y-99289732D01*
X97589286Y-99289732D02*
X97417857Y-99289732D01*
X98210714Y-99332590D02*
X98553572Y-99332590D01*
X99089286Y-99482590D02*
X99153572Y-99504018D01*
X99153572Y-99504018D02*
X99260714Y-99504018D01*
X99260714Y-99504018D02*
X99303572Y-99482590D01*
X99303572Y-99482590D02*
X99325000Y-99461161D01*
X99325000Y-99461161D02*
X99346429Y-99418304D01*
X99346429Y-99418304D02*
X99346429Y-99375447D01*
X99346429Y-99375447D02*
X99325000Y-99332590D01*
X99325000Y-99332590D02*
X99303572Y-99311161D01*
X99303572Y-99311161D02*
X99260714Y-99289732D01*
X99260714Y-99289732D02*
X99175000Y-99268304D01*
X99175000Y-99268304D02*
X99132143Y-99246875D01*
X99132143Y-99246875D02*
X99110714Y-99225447D01*
X99110714Y-99225447D02*
X99089286Y-99182590D01*
X99089286Y-99182590D02*
X99089286Y-99139732D01*
X99089286Y-99139732D02*
X99110714Y-99096875D01*
X99110714Y-99096875D02*
X99132143Y-99075447D01*
X99132143Y-99075447D02*
X99175000Y-99054018D01*
X99175000Y-99054018D02*
X99282143Y-99054018D01*
X99282143Y-99054018D02*
X99346429Y-99075447D01*
X99539285Y-99504018D02*
X99539285Y-99054018D01*
X99539285Y-99054018D02*
X99710714Y-99054018D01*
X99710714Y-99054018D02*
X99753571Y-99075447D01*
X99753571Y-99075447D02*
X99775000Y-99096875D01*
X99775000Y-99096875D02*
X99796428Y-99139732D01*
X99796428Y-99139732D02*
X99796428Y-99204018D01*
X99796428Y-99204018D02*
X99775000Y-99246875D01*
X99775000Y-99246875D02*
X99753571Y-99268304D01*
X99753571Y-99268304D02*
X99710714Y-99289732D01*
X99710714Y-99289732D02*
X99539285Y-99289732D01*
X99989285Y-99504018D02*
X99989285Y-99054018D01*
X100546428Y-99332590D02*
X100889286Y-99332590D01*
X101425000Y-99096875D02*
X101446428Y-99075447D01*
X101446428Y-99075447D02*
X101489286Y-99054018D01*
X101489286Y-99054018D02*
X101596428Y-99054018D01*
X101596428Y-99054018D02*
X101639286Y-99075447D01*
X101639286Y-99075447D02*
X101660714Y-99096875D01*
X101660714Y-99096875D02*
X101682143Y-99139732D01*
X101682143Y-99139732D02*
X101682143Y-99182590D01*
X101682143Y-99182590D02*
X101660714Y-99246875D01*
X101660714Y-99246875D02*
X101403571Y-99504018D01*
X101403571Y-99504018D02*
X101682143Y-99504018D01*
X102067857Y-99204018D02*
X102067857Y-99504018D01*
X101960714Y-99032590D02*
X101853571Y-99354018D01*
X101853571Y-99354018D02*
X102132142Y-99354018D01*
X102303570Y-99461161D02*
X102324999Y-99482590D01*
X102324999Y-99482590D02*
X102303570Y-99504018D01*
X102303570Y-99504018D02*
X102282142Y-99482590D01*
X102282142Y-99482590D02*
X102303570Y-99461161D01*
X102303570Y-99461161D02*
X102303570Y-99504018D01*
X102303570Y-99225447D02*
X102324999Y-99246875D01*
X102324999Y-99246875D02*
X102303570Y-99268304D01*
X102303570Y-99268304D02*
X102282142Y-99246875D01*
X102282142Y-99246875D02*
X102303570Y-99225447D01*
X102303570Y-99225447D02*
X102303570Y-99268304D01*
X102453571Y-99054018D02*
X102603571Y-99504018D01*
X102603571Y-99504018D02*
X102753571Y-99054018D01*
X103160713Y-99461161D02*
X103139285Y-99482590D01*
X103139285Y-99482590D02*
X103074999Y-99504018D01*
X103074999Y-99504018D02*
X103032142Y-99504018D01*
X103032142Y-99504018D02*
X102967856Y-99482590D01*
X102967856Y-99482590D02*
X102924999Y-99439732D01*
X102924999Y-99439732D02*
X102903570Y-99396875D01*
X102903570Y-99396875D02*
X102882142Y-99311161D01*
X102882142Y-99311161D02*
X102882142Y-99246875D01*
X102882142Y-99246875D02*
X102903570Y-99161161D01*
X102903570Y-99161161D02*
X102924999Y-99118304D01*
X102924999Y-99118304D02*
X102967856Y-99075447D01*
X102967856Y-99075447D02*
X103032142Y-99054018D01*
X103032142Y-99054018D02*
X103074999Y-99054018D01*
X103074999Y-99054018D02*
X103139285Y-99075447D01*
X103139285Y-99075447D02*
X103160713Y-99096875D01*
X103439285Y-99054018D02*
X103524999Y-99054018D01*
X103524999Y-99054018D02*
X103567856Y-99075447D01*
X103567856Y-99075447D02*
X103610713Y-99118304D01*
X103610713Y-99118304D02*
X103632142Y-99204018D01*
X103632142Y-99204018D02*
X103632142Y-99354018D01*
X103632142Y-99354018D02*
X103610713Y-99439732D01*
X103610713Y-99439732D02*
X103567856Y-99482590D01*
X103567856Y-99482590D02*
X103524999Y-99504018D01*
X103524999Y-99504018D02*
X103439285Y-99504018D01*
X103439285Y-99504018D02*
X103396428Y-99482590D01*
X103396428Y-99482590D02*
X103353570Y-99439732D01*
X103353570Y-99439732D02*
X103332142Y-99354018D01*
X103332142Y-99354018D02*
X103332142Y-99204018D01*
X103332142Y-99204018D02*
X103353570Y-99118304D01*
X103353570Y-99118304D02*
X103396428Y-99075447D01*
X103396428Y-99075447D02*
X103439285Y-99054018D01*
X103824999Y-99504018D02*
X103824999Y-99054018D01*
X103824999Y-99054018D02*
X103974999Y-99375447D01*
X103974999Y-99375447D02*
X104124999Y-99054018D01*
X104124999Y-99054018D02*
X104124999Y-99504018D01*
D11*
X94557142Y-94049760D02*
X94242856Y-94049760D01*
X94399999Y-94049760D02*
X94399999Y-93499760D01*
X94399999Y-93499760D02*
X94347618Y-93578331D01*
X94347618Y-93578331D02*
X94295237Y-93630712D01*
X94295237Y-93630712D02*
X94242856Y-93656903D01*
X105180951Y-93552141D02*
X105207142Y-93525950D01*
X105207142Y-93525950D02*
X105259523Y-93499760D01*
X105259523Y-93499760D02*
X105390475Y-93499760D01*
X105390475Y-93499760D02*
X105442856Y-93525950D01*
X105442856Y-93525950D02*
X105469047Y-93552141D01*
X105469047Y-93552141D02*
X105495237Y-93604522D01*
X105495237Y-93604522D02*
X105495237Y-93656903D01*
X105495237Y-93656903D02*
X105469047Y-93735474D01*
X105469047Y-93735474D02*
X105154761Y-94049760D01*
X105154761Y-94049760D02*
X105495237Y-94049760D01*
X105966666Y-93683093D02*
X105966666Y-94049760D01*
X105835714Y-93473570D02*
X105704761Y-93866427D01*
X105704761Y-93866427D02*
X106045238Y-93866427D01*
X97066666Y-105499760D02*
X97119047Y-105499760D01*
X97119047Y-105499760D02*
X97171428Y-105525950D01*
X97171428Y-105525950D02*
X97197618Y-105552141D01*
X97197618Y-105552141D02*
X97223809Y-105604522D01*
X97223809Y-105604522D02*
X97249999Y-105709284D01*
X97249999Y-105709284D02*
X97249999Y-105840236D01*
X97249999Y-105840236D02*
X97223809Y-105944998D01*
X97223809Y-105944998D02*
X97197618Y-105997379D01*
X97197618Y-105997379D02*
X97171428Y-106023570D01*
X97171428Y-106023570D02*
X97119047Y-106049760D01*
X97119047Y-106049760D02*
X97066666Y-106049760D01*
X97066666Y-106049760D02*
X97014285Y-106023570D01*
X97014285Y-106023570D02*
X96988094Y-105997379D01*
X96988094Y-105997379D02*
X96961904Y-105944998D01*
X96961904Y-105944998D02*
X96935713Y-105840236D01*
X96935713Y-105840236D02*
X96935713Y-105709284D01*
X96935713Y-105709284D02*
X96961904Y-105604522D01*
X96961904Y-105604522D02*
X96988094Y-105552141D01*
X96988094Y-105552141D02*
X97014285Y-105525950D01*
X97014285Y-105525950D02*
X97066666Y-105499760D01*
X97485714Y-105997379D02*
X97511904Y-106023570D01*
X97511904Y-106023570D02*
X97485714Y-106049760D01*
X97485714Y-106049760D02*
X97459523Y-106023570D01*
X97459523Y-106023570D02*
X97485714Y-105997379D01*
X97485714Y-105997379D02*
X97485714Y-106049760D01*
X97826190Y-105735474D02*
X97773809Y-105709284D01*
X97773809Y-105709284D02*
X97747619Y-105683093D01*
X97747619Y-105683093D02*
X97721428Y-105630712D01*
X97721428Y-105630712D02*
X97721428Y-105604522D01*
X97721428Y-105604522D02*
X97747619Y-105552141D01*
X97747619Y-105552141D02*
X97773809Y-105525950D01*
X97773809Y-105525950D02*
X97826190Y-105499760D01*
X97826190Y-105499760D02*
X97930952Y-105499760D01*
X97930952Y-105499760D02*
X97983333Y-105525950D01*
X97983333Y-105525950D02*
X98009524Y-105552141D01*
X98009524Y-105552141D02*
X98035714Y-105604522D01*
X98035714Y-105604522D02*
X98035714Y-105630712D01*
X98035714Y-105630712D02*
X98009524Y-105683093D01*
X98009524Y-105683093D02*
X97983333Y-105709284D01*
X97983333Y-105709284D02*
X97930952Y-105735474D01*
X97930952Y-105735474D02*
X97826190Y-105735474D01*
X97826190Y-105735474D02*
X97773809Y-105761665D01*
X97773809Y-105761665D02*
X97747619Y-105787855D01*
X97747619Y-105787855D02*
X97721428Y-105840236D01*
X97721428Y-105840236D02*
X97721428Y-105944998D01*
X97721428Y-105944998D02*
X97747619Y-105997379D01*
X97747619Y-105997379D02*
X97773809Y-106023570D01*
X97773809Y-106023570D02*
X97826190Y-106049760D01*
X97826190Y-106049760D02*
X97930952Y-106049760D01*
X97930952Y-106049760D02*
X97983333Y-106023570D01*
X97983333Y-106023570D02*
X98009524Y-105997379D01*
X98009524Y-105997379D02*
X98035714Y-105944998D01*
X98035714Y-105944998D02*
X98035714Y-105840236D01*
X98035714Y-105840236D02*
X98009524Y-105787855D01*
X98009524Y-105787855D02*
X97983333Y-105761665D01*
X97983333Y-105761665D02*
X97930952Y-105735474D01*
X98271429Y-106049760D02*
X98271429Y-105683093D01*
X98271429Y-105735474D02*
X98297619Y-105709284D01*
X98297619Y-105709284D02*
X98350000Y-105683093D01*
X98350000Y-105683093D02*
X98428572Y-105683093D01*
X98428572Y-105683093D02*
X98480953Y-105709284D01*
X98480953Y-105709284D02*
X98507143Y-105761665D01*
X98507143Y-105761665D02*
X98507143Y-106049760D01*
X98507143Y-105761665D02*
X98533334Y-105709284D01*
X98533334Y-105709284D02*
X98585715Y-105683093D01*
X98585715Y-105683093D02*
X98664286Y-105683093D01*
X98664286Y-105683093D02*
X98716667Y-105709284D01*
X98716667Y-105709284D02*
X98742857Y-105761665D01*
X98742857Y-105761665D02*
X98742857Y-106049760D01*
X99004762Y-106049760D02*
X99004762Y-105683093D01*
X99004762Y-105735474D02*
X99030952Y-105709284D01*
X99030952Y-105709284D02*
X99083333Y-105683093D01*
X99083333Y-105683093D02*
X99161905Y-105683093D01*
X99161905Y-105683093D02*
X99214286Y-105709284D01*
X99214286Y-105709284D02*
X99240476Y-105761665D01*
X99240476Y-105761665D02*
X99240476Y-106049760D01*
X99240476Y-105761665D02*
X99266667Y-105709284D01*
X99266667Y-105709284D02*
X99319048Y-105683093D01*
X99319048Y-105683093D02*
X99397619Y-105683093D01*
X99397619Y-105683093D02*
X99450000Y-105709284D01*
X99450000Y-105709284D02*
X99476190Y-105761665D01*
X99476190Y-105761665D02*
X99476190Y-106049760D01*
X100130952Y-106023570D02*
X100209524Y-106049760D01*
X100209524Y-106049760D02*
X100340476Y-106049760D01*
X100340476Y-106049760D02*
X100392857Y-106023570D01*
X100392857Y-106023570D02*
X100419048Y-105997379D01*
X100419048Y-105997379D02*
X100445238Y-105944998D01*
X100445238Y-105944998D02*
X100445238Y-105892617D01*
X100445238Y-105892617D02*
X100419048Y-105840236D01*
X100419048Y-105840236D02*
X100392857Y-105814046D01*
X100392857Y-105814046D02*
X100340476Y-105787855D01*
X100340476Y-105787855D02*
X100235714Y-105761665D01*
X100235714Y-105761665D02*
X100183333Y-105735474D01*
X100183333Y-105735474D02*
X100157143Y-105709284D01*
X100157143Y-105709284D02*
X100130952Y-105656903D01*
X100130952Y-105656903D02*
X100130952Y-105604522D01*
X100130952Y-105604522D02*
X100157143Y-105552141D01*
X100157143Y-105552141D02*
X100183333Y-105525950D01*
X100183333Y-105525950D02*
X100235714Y-105499760D01*
X100235714Y-105499760D02*
X100366667Y-105499760D01*
X100366667Y-105499760D02*
X100445238Y-105525950D01*
X100785715Y-105499760D02*
X100890477Y-105499760D01*
X100890477Y-105499760D02*
X100942858Y-105525950D01*
X100942858Y-105525950D02*
X100995239Y-105578331D01*
X100995239Y-105578331D02*
X101021429Y-105683093D01*
X101021429Y-105683093D02*
X101021429Y-105866427D01*
X101021429Y-105866427D02*
X100995239Y-105971189D01*
X100995239Y-105971189D02*
X100942858Y-106023570D01*
X100942858Y-106023570D02*
X100890477Y-106049760D01*
X100890477Y-106049760D02*
X100785715Y-106049760D01*
X100785715Y-106049760D02*
X100733334Y-106023570D01*
X100733334Y-106023570D02*
X100680953Y-105971189D01*
X100680953Y-105971189D02*
X100654762Y-105866427D01*
X100654762Y-105866427D02*
X100654762Y-105683093D01*
X100654762Y-105683093D02*
X100680953Y-105578331D01*
X100680953Y-105578331D02*
X100733334Y-105525950D01*
X100733334Y-105525950D02*
X100785715Y-105499760D01*
X101519048Y-106049760D02*
X101257143Y-106049760D01*
X101257143Y-106049760D02*
X101257143Y-105499760D01*
X101702381Y-106049760D02*
X101702381Y-105499760D01*
X101702381Y-105499760D02*
X101833333Y-105499760D01*
X101833333Y-105499760D02*
X101911905Y-105525950D01*
X101911905Y-105525950D02*
X101964286Y-105578331D01*
X101964286Y-105578331D02*
X101990476Y-105630712D01*
X101990476Y-105630712D02*
X102016667Y-105735474D01*
X102016667Y-105735474D02*
X102016667Y-105814046D01*
X102016667Y-105814046D02*
X101990476Y-105918808D01*
X101990476Y-105918808D02*
X101964286Y-105971189D01*
X101964286Y-105971189D02*
X101911905Y-106023570D01*
X101911905Y-106023570D02*
X101833333Y-106049760D01*
X101833333Y-106049760D02*
X101702381Y-106049760D01*
X102252381Y-105761665D02*
X102435714Y-105761665D01*
X102514286Y-106049760D02*
X102252381Y-106049760D01*
X102252381Y-106049760D02*
X102252381Y-105499760D01*
X102252381Y-105499760D02*
X102514286Y-105499760D01*
X103064286Y-106049760D02*
X102880952Y-105787855D01*
X102750000Y-106049760D02*
X102750000Y-105499760D01*
X102750000Y-105499760D02*
X102959524Y-105499760D01*
X102959524Y-105499760D02*
X103011905Y-105525950D01*
X103011905Y-105525950D02*
X103038095Y-105552141D01*
X103038095Y-105552141D02*
X103064286Y-105604522D01*
X103064286Y-105604522D02*
X103064286Y-105683093D01*
X103064286Y-105683093D02*
X103038095Y-105735474D01*
X103038095Y-105735474D02*
X103011905Y-105761665D01*
X103011905Y-105761665D02*
X102959524Y-105787855D01*
X102959524Y-105787855D02*
X102750000Y-105787855D01*
X91157142Y-106049760D02*
X90842856Y-106049760D01*
X90999999Y-106049760D02*
X90999999Y-105499760D01*
X90999999Y-105499760D02*
X90947618Y-105578331D01*
X90947618Y-105578331D02*
X90895237Y-105630712D01*
X90895237Y-105630712D02*
X90842856Y-105656903D01*
X108580951Y-105552141D02*
X108607142Y-105525950D01*
X108607142Y-105525950D02*
X108659523Y-105499760D01*
X108659523Y-105499760D02*
X108790475Y-105499760D01*
X108790475Y-105499760D02*
X108842856Y-105525950D01*
X108842856Y-105525950D02*
X108869047Y-105552141D01*
X108869047Y-105552141D02*
X108895237Y-105604522D01*
X108895237Y-105604522D02*
X108895237Y-105656903D01*
X108895237Y-105656903D02*
X108869047Y-105735474D01*
X108869047Y-105735474D02*
X108554761Y-106049760D01*
X108554761Y-106049760D02*
X108895237Y-106049760D01*
X109366666Y-105683093D02*
X109366666Y-106049760D01*
X109235714Y-105473570D02*
X109104761Y-105866427D01*
X109104761Y-105866427D02*
X109445238Y-105866427D01*
M02*
